Coordinates
version=1
nRows=14
nColumns=40
inDegrees=yes

Units are S.I. units (second, meters, Newtons, ...)
If the header above contains a line with 'inDegrees', this indicates whether rotational values are in degrees (yes) or radians (no).

endheader
time	pelvis_tilt	pelvis_list	pelvis_rotation	pelvis_tx	pelvis_ty	pelvis_tz	hip_flexion_r	hip_adduction_r	hip_rotation_r	knee_angle_r	knee_angle_r_beta	ankle_angle_r	subtalar_angle_r	mtp_angle_r	hip_flexion_l	hip_adduction_l	hip_rotation_l	knee_angle_l	knee_angle_l_beta	ankle_angle_l	subtalar_angle_l	mtp_angle_l	lumbar_extension	lumbar_bending	lumbar_rotation	arm_flex_r	arm_add_r	arm_rot_r	elbow_flex_r	pro_sup_r	wrist_flex_r	wrist_dev_r	arm_flex_l	arm_add_l	arm_rot_l	elbow_flex_l	pro_sup_l	wrist_flex_l	wrist_dev_l
      0.43000000	     21.73034035	      4.32536326	     -6.94100872	      0.32743375	      0.95366129	     -0.25519191	      4.35828522	     -6.82314945	    -10.91809221	     22.52777655	      0.39318387	      4.83858534	      0.00000000	      0.00000000	    -28.54158950	      9.82178612	      0.92796524	      9.09173230	      0.15868066	     15.64494971	      0.00000000	      0.00000000	    -35.41287840	     -7.53845080	      1.17310597	     -8.33177544	      3.17079495	    -20.26713526	     26.53023690	     89.36960562	    -13.72799928	      2.57778373	     13.02602990	     -8.04538308	     19.84237446	     31.10912061	     88.87073537	    -16.35688526	     -2.75957009
      0.44000000	     21.39540799	      4.42483138	     -6.74279476	      0.33956267	      0.95067548	     -0.25431132	      4.90189826	     -6.36124461	    -10.09352170	     19.32871373	      0.33734969	      4.18974659	      0.00000000	      0.00000000	    -28.87103546	      9.78592828	      1.13106241	      9.41657125	      0.16435017	     16.59693520	      0.00000000	      0.00000000	    -35.09896144	     -7.46399095	      0.86398043	     -8.43260425	      3.27466229	    -20.37165310	     26.29916444	     89.36914981	    -13.78205096	      2.55410286	     13.39762458	     -8.30237903	     20.04433222	     31.58442966	     88.86803182	    -16.33533560	     -2.83963657
      0.45000000	     21.03913145	      4.52210615	     -6.54606697	      0.35169554	      0.94750732	     -0.25334661	      5.42396494	     -5.91935205	     -8.97845435	     16.35209292	      0.28539786	      3.55791806	      0.00000000	      0.00000000	    -29.09421503	      9.74355588	      1.31303781	      9.90496347	      0.17287422	     17.63004300	      0.00000000	      0.00000000	    -34.75349232	     -7.41199331	      0.55158753	     -8.49872615	      3.36330339	    -20.42121661	     26.06658292	     89.37154679	    -13.84665308	      2.51446410	     13.74191469	     -8.55043270	     20.20821638	     32.02880994	     88.86778319	    -16.32225298	     -2.91806745
      0.46000000	     20.64117836	      4.71841481	     -6.32195873	      0.36401325	      0.94414906	     -0.25247732	      5.96973634	     -5.65255180	     -7.58899854	     13.70299737	      0.23916242	      3.07547238	      0.00000000	      0.00000000	    -29.22091313	      9.78046764	      1.48003138	     10.52139334	      0.18363296	     18.66716770	      0.00000000	      0.00000000	    -34.33079268	     -7.43224288	      0.20549626	     -8.58778193	      3.45186260	    -20.50129782	     25.82733430	     89.36585910	    -13.92531548	      2.48325284	     14.04438760	     -8.75630755	     20.34252074	     32.43088042	     88.88458574	    -16.31047300	     -2.99503621
      0.47000000	     20.31254107	      4.72644076	     -6.08019975	      0.37635523	      0.94097431	     -0.25160120	      6.33249105	     -5.25747817	     -5.95416672	     11.30547583	      0.19731778	      2.35506032	      0.00000000	      0.00000000	    -29.36317512	      9.62939090	      1.49467484	     11.30279701	      0.19727102	     19.59092657	      0.00000000	      0.00000000	    -34.05483369	     -7.27193648	      0.02543778	     -8.65622681	      3.48225035	    -20.46098416	     25.53805197	     89.36585423	    -14.07697107	      2.38545711	     14.32724398	     -8.86587634	     20.32491338	     32.89100913	     88.88692174	    -16.33568532	     -3.08775089
      0.48000000	     19.89982959	      4.97824025	     -5.80207095	      0.38890788	      0.93756136	     -0.25066836	      6.90812840	     -5.21553942	     -4.48964094	      9.60580986	      0.16765301	      2.24710738	      0.00000000	      0.00000000	    -29.35857126	      9.68398649	      1.69630495	     12.21570142	      0.21320421	     20.58531105	      0.00000000	      0.00000000	    -33.59387760	     -7.33263879	     -0.32027063	     -8.71820554	      3.57010896	    -20.55219037	     25.20820583	     89.36525336	    -14.16034619	      2.39952178	     14.57079271	     -9.03055894	     20.43067920	     33.22305445	     88.90365625	    -16.31403692	     -3.15813982
      0.49000000	     19.63425247	      5.08941049	     -5.47100555	      0.40139873	      0.93460578	     -0.24983418	      7.24356648	     -5.11230381	     -2.82037139	      8.28611676	      0.14462002	      1.90632734	      0.00000000	      0.00000000	    -29.47060488	      9.57926476	      1.83847378	     13.21376552	      0.23062371	     21.39706888	      0.00000000	      0.00000000	    -33.39223717	     -7.25009912	     -0.53717961	     -8.74859122	      3.61053428	    -20.57034201	     24.84976646	     89.35986451	    -14.27562535	      2.38833391	     14.83160670	     -9.07861323	     20.41211784	     33.59182319	     88.89453942	    -16.30810678	     -3.24446948
      0.50000000	     19.33909400	      5.11890561	     -5.22759589	      0.41417735	      0.93177333	     -0.24877599	      7.63881132	     -4.95650105	     -1.53766058	      7.49403710	      0.13079562	      1.64878362	      0.00000000	      0.00000000	    -29.52708587	      9.42203608	      1.82748024	     14.31307575	      0.24981030	     22.00662277	      0.00000000	      0.00000000	    -33.12511767	     -7.13386144	     -0.66169865	     -8.80259326	      3.62634880	    -20.51722711	     24.53033867	     89.36178559	    -14.45454006	      2.32969423	     14.96470964	     -9.10125536	     20.25488186	     33.96116188	     88.89641241	    -16.31203039	     -3.34988775
      0.51000000	     19.05531460	      5.12760442	     -4.93427851	      0.42703737	      0.92921346	     -0.24768377	      8.11985872	     -4.82135689	     -0.61479695	      7.43171740	      0.12970794	      1.62117893	      0.00000000	      0.00000000	    -29.54557869	      9.21200249	      1.95685013	     15.54486014	      0.27130899	     22.42757264	      0.00000000	      0.00000000	    -32.85786106	     -6.99047169	     -0.77263648	     -8.80566525	      3.64246887	    -20.54918907	     24.11216999	     89.37086248	    -14.54512533	      2.36720119	     15.09866316	     -9.09040315	     20.17308335	     34.21023516	     88.89652172	    -16.30898316	     -3.42602375
      0.52000000	     18.81958001	      5.07612710	     -4.64224780	      0.44011199	      0.92698289	     -0.24652362	      8.48950674	     -4.63904407	      0.14626823	      7.71854307	      0.13471399	      1.57507502	      0.00000000	      0.00000000	    -29.58330999	      8.93674539	      2.04915668	     16.89070511	      0.29479842	     22.69305101	      0.00000000	      0.00000000	    -32.64918725	     -6.79648267	     -0.79644311	     -8.83410961	      3.65335654	    -20.53454355	     23.73296665	     89.36824130	    -14.63602904	      2.39275939	     15.15694759	     -9.02544400	     20.02875102	     34.47352676	     88.88845245	    -16.31442709	     -3.52067932
      0.53000000	     18.64408922	      4.81913926	     -4.27338348	      0.45345916	      0.92525152	     -0.24537307	      8.73867232	     -4.26115327	      0.44779903	      8.41612639	      0.14688912	      1.53193040	      0.00000000	      0.00000000	    -29.61475287	      8.40276555	      1.93608280	     18.44984664	      0.32201057	     22.89399918	      0.00000000	      0.00000000	    -32.54720866	     -6.35134178	     -1.10720276	     -8.68803964	      3.54853751	    -19.92619425	     23.18555251	     89.35601232	    -15.25323843	      2.23801855	     14.77138583	     -9.00629700	     19.03026347	     35.12068566	     88.90934518	    -16.26385139	     -3.85016829
      0.54000000	     18.51337305	      4.62176085	     -4.02346756	      0.46687837	      0.92381970	     -0.24395870	      9.01835970	     -3.94014741	      0.66542646	      9.58790215	      0.16734046	      1.48442705	      0.00000000	      0.00000000	    -29.63272181	      7.97100802	      1.92782046	     20.12678660	      0.35127869	     22.68366416	      0.00000000	      0.00000000	    -32.44624986	     -6.06221331	     -0.96559574	     -8.71673689	      3.52631023	    -19.88728844	     22.83439736	     89.35631028	    -15.30692792	      2.29428141	     14.70979398	     -8.86931206	     18.80366545	     35.32648196	     88.90162484	    -16.27547329	     -3.94145583
      0.55000000	     18.42148888	      4.35257521	     -3.79582032	      0.48043294	      0.92283325	     -0.24245541	      9.20757062	     -3.54398780	      0.88174004	     10.98292320	      0.19168817	      1.26387476	      0.00000000	      0.00000000	    -29.64055097	      7.47882209	      2.04478786	     21.92461799	      0.38265677	     22.08901896	      0.00000000	      0.00000000	    -32.37609909	     -5.72562420	     -0.77807978	     -8.70200280	      3.48999369	    -19.85020039	     22.43031697	     89.36027154	    -15.34619246	      2.37535330	     14.58702566	     -8.70496512	     18.56511759	     35.46494121	     88.88529170	    -16.30116478	     -4.03503009
      0.56000000	     18.40861852	      3.96470599	     -3.55238957	      0.49446141	      0.92224702	     -0.24083504	      9.28812065	     -3.05260328	      0.40900117	     12.65356631	      0.22084639	      1.08941725	      0.00000000	      0.00000000	    -29.64534218	      6.81523177	      1.79280514	     23.94557104	      0.41792906	     21.26806431	      0.00000000	      0.00000000	    -32.35105519	     -5.26500659	     -0.58738369	     -8.75710875	      3.42730184	    -19.66469239	     22.18445027	     89.35785717	    -15.42077347	      2.43937422	     14.24624502	     -8.54598970	     18.10073911	     35.69171969	     88.88896617	    -16.35385827	     -4.24406074
